<svg width="21" height="17" viewBox="0 0 21 17" fill="none" xmlns="http://www.w3.org/2000/svg">
<path d="M20.125 2.33335C19.375 2.66669 18.625 2.91669 17.7917 3.00002C18.625 2.50002 19.2917 1.66669 19.625 0.75002C18.7917 1.25002 17.9583 1.58335 17.0417 1.75002C16.2917 0.916687 15.2083 0.416687 14.0417 0.416687C11.7917 0.416687 9.95833 2.25002 9.95833 4.50002C9.95833 4.83335 9.95833 5.16669 10.0417 5.41669C6.54167 5.25002 3.54167 3.58335 1.54167 1.08335C1.125 1.75002 0.958333 2.41669 0.958333 3.16669C0.958333 4.58335 1.70833 5.83335 2.79167 6.58335C2.125 6.58335 1.45833 6.41669 0.958333 6.08335C0.958333 6.08335 0.958333 6.08335 0.958333 6.16669C0.958333 8.16669 2.375 9.83335 4.20833 10.1667C3.875 10.25 3.54167 10.3334 3.125 10.3334C2.875 10.3334 2.625 10.3334 2.375 10.25C2.875 11.9167 4.375 13.0834 6.20833 13.0834C4.79167 14.1667 3.04167 14.8334 1.125 14.8334C0.791667 14.8334 0.458333 14.8334 0.125 14.75C1.95833 15.9167 4.125 16.5834 6.375 16.5834C13.9583 16.5834 18.0417 10.3334 18.0417 4.91669C18.0417 4.75002 18.0417 4.58335 18.0417 4.41669C18.875 3.83335 19.5417 3.08335 20.125 2.33335Z" fill="#FAFAFA"/>
</svg>
